<svg xmlns="http://www.w3.org/2000/svg" viewBox="0 0 124 35" enable-background="new 0 0 124 35"><g stroke="#E7384A" stroke-width="4" stroke-miterlimit="10" fill="none"><circle cx="11.5" cy="9.4" r="6.5"/><path stroke-linecap="round" d="M20 2.9h-8.5M15.8 14.4l-8 7.1M15.8 22.2L5 32.1"/></g><g fill="#444"><path d="M36.7 2.7c1.9 0 3.2.6 4.5 1.7.1.1.2.4 0 .5l-.5.5c-.2.2-.3.2-.5 0-1-.8-2.3-1.4-3.5-1.4-2.9 0-5.1 2.4-5.1 5.3 0 2.8 2.2 5.3 5.1 5.3 2 0 3.3-.8 3.3-.8v-2.6h-2.1c-.2 0-.3-.1-.3-.3v-.7c0-.2.1-.4.3-.4h3.2c.2 0 .3.2.3.4v4.2c0 .1-.1.2-.1.3 0 0-1.9 1.2-4.6 1.2C33 15.9 30 13 30 9.3s3-6.6 6.7-6.6zM46.3 3.2c0-.2.1-.4.4-.4h4.8c2.2 0 4 1.7 4 3.9 0 1.7-1.1 3.1-2.7 3.8l2.5 4.7c.1.2 0 .5-.3.5h-1c-.2 0-.3-.1-.3-.2l-2.5-4.9h-3.5v4.7c0 .2-.2.4-.4.4h-.7c-.2 0-.4-.2-.4-.4V3.2zm5.1 6.3c1.4 0 2.7-1.2 2.7-2.7 0-1.4-1.2-2.6-2.7-2.6h-3.6v5.3h3.6zM60.4 3.2c0-.2.1-.4.4-.4H68c.2 0 .3.2.3.4v.5c0 .2-.1.4-.3.4h-6.2v4.5h5.3c.2 0 .3.2.3.4v.5c0 .2-.2.4-.3.4h-5.3v4.7H68c.2 0 .3.2.3.4v.5c0 .2-.1.4-.3.4h-7.3c-.2 0-.4-.2-.4-.4V3.2zM71.3 15.3l5.6-12.4c.1-.1.1-.2.3-.2h.2c.2 0 .3.1.3.2l5.6 12.4c.1.2 0 .5-.3.5h-.7c-.2 0-.3-.1-.3-.2l-1.4-3H74l-1.3 3c0 .1-.1.2-.3.2h-.7c-.3 0-.5-.3-.4-.5zm8.8-3.9l-2.7-6h-.1l-2.7 6h5.5zM85.4 15.3L91 2.9c.1-.1.1-.2.3-.2h.2c.2 0 .3.1.3.2l5.6 12.4c.1.2 0 .5-.3.5h-.7c-.2 0-.3-.1-.3-.2l-1.4-3h-6.5l-1.3 3c0 .1-.1.2-.3.2h-.7c-.5 0-.6-.3-.5-.5zm8.8-3.9l-2.7-6h-.1l-2.7 6h5.5zM99.5 15.3l5.6-12.4c.1-.1.1-.2.3-.2h.2c.2 0 .3.1.3.2l5.6 12.4c.1.2 0 .5-.3.5h-.7c-.2 0-.3-.1-.3-.2l-1.4-3h-6.5l-1.3 3c0 .1-.1.2-.3.2h-.7c-.5 0-.6-.3-.5-.5zm8.7-3.9l-2.7-6h-.1l-2.7 6h5.5zM116.4 4.1h-3.2c-.2 0-.4-.2-.4-.4v-.5c0-.2.1-.4.4-.4h7.8c.2 0 .3.2.3.4v.5c0 .2-.1.4-.3.4h-3.2v11.3c0 .2-.2.4-.3.4h-.7c-.2 0-.4-.2-.4-.4V4.1z"/></g></svg>